<svg width="700" height="630" viewBox="0 0 700 630" fill="none" xmlns="http://www.w3.org/2000/svg">
<g clip-path="url(#clip0_2448_1055)">
<path d="M960.395 101.477L380.358 -168.999L10.1439 624.927C4.54218 636.939 9.73951 651.219 21.7525 656.821L558.287 907.011C570.3 912.612 584.579 907.415 590.181 895.402L960.395 101.477Z" fill="#0A0A0A"/>
<rect x="-0.332232" y="0.120922" width="0.5" height="1099.5" transform="matrix(-0.906308 -0.422618 -0.422618 0.906308 1160.16 83.0487)" stroke="#171717" stroke-width="0.5" stroke-dasharray="3 3"/>
<rect x="-0.332232" y="0.120922" width="0.5" height="1099.5" transform="matrix(-0.906308 -0.422618 -0.422618 0.906308 1137.5 72.4823)" stroke="#171717" stroke-width="0.5" stroke-dasharray="3 3"/>
<rect x="-0.332232" y="0.120922" width="0.5" height="1099.5" transform="matrix(-0.906308 -0.422618 -0.422618 0.906308 1114.84 61.9178)" stroke="#171717" stroke-width="0.5" stroke-dasharray="3 3"/>
<rect x="-0.332232" y="0.120922" width="0.5" height="1099.5" transform="matrix(-0.906308 -0.422618 -0.422618 0.906308 1092.18 51.3514)" stroke="#171717" stroke-width="0.5" stroke-dasharray="3 3"/>
<rect x="-0.332232" y="0.120922" width="0.5" height="1099.5" transform="matrix(-0.906308 -0.422618 -0.422618 0.906308 1069.53 40.7869)" stroke="#171717" stroke-width="0.5" stroke-dasharray="3 3"/>
<rect x="-0.332232" y="0.120922" width="0.5" height="1099.5" transform="matrix(-0.906308 -0.422618 -0.422618 0.906308 1046.87 30.2205)" stroke="#171717" stroke-width="0.5" stroke-dasharray="3 3"/>
<rect x="-0.332232" y="0.120922" width="0.5" height="1099.5" transform="matrix(-0.906308 -0.422618 -0.422618 0.906308 1024.21 19.6561)" stroke="#171717" stroke-width="0.5" stroke-dasharray="3 3"/>
<rect x="-0.332232" y="0.120922" width="0.5" height="1099.5" transform="matrix(-0.906308 -0.422618 -0.422618 0.906308 1001.55 9.08967)" stroke="#171717" stroke-width="0.5" stroke-dasharray="3 3"/>
<rect x="-0.332232" y="0.120922" width="0.5" height="1099.5" transform="matrix(-0.906308 -0.422618 -0.422618 0.906308 978.894 -1.47478)" stroke="#171717" stroke-width="0.5" stroke-dasharray="3 3"/>
<rect x="-0.332232" y="0.120922" width="0.5" height="1099.5" transform="matrix(-0.906308 -0.422618 -0.422618 0.906308 956.238 -12.0412)" stroke="#171717" stroke-width="0.5" stroke-dasharray="3 3"/>
<rect x="-0.332232" y="0.120922" width="0.5" height="1099.5" transform="matrix(-0.906308 -0.422618 -0.422618 0.906308 933.578 -22.6056)" stroke="#171717" stroke-width="0.5" stroke-dasharray="3 3"/>
<rect x="-0.332232" y="0.120922" width="0.5" height="1099.5" transform="matrix(-0.906308 -0.422618 -0.422618 0.906308 910.922 -33.172)" stroke="#171717" stroke-width="0.5" stroke-dasharray="3 3"/>
<rect x="-0.332232" y="0.120922" width="0.5" height="1099.5" transform="matrix(-0.906308 -0.422618 -0.422618 0.906308 888.265 -43.7365)" stroke="#171717" stroke-width="0.5" stroke-dasharray="3 3"/>
<rect x="-0.332232" y="0.120922" width="0.5" height="1099.5" transform="matrix(-0.906308 -0.422618 -0.422618 0.906308 865.605 -54.3029)" stroke="#171717" stroke-width="0.5" stroke-dasharray="3 3"/>
<rect x="-0.332232" y="0.120922" width="0.5" height="1099.5" transform="matrix(-0.906308 -0.422618 -0.422618 0.906308 842.949 -64.8674)" stroke="#171717" stroke-width="0.5" stroke-dasharray="3 3"/>
<rect x="-0.332232" y="0.120922" width="0.5" height="1099.5" transform="matrix(-0.906308 -0.422618 -0.422618 0.906308 820.289 -75.4338)" stroke="#171717" stroke-width="0.5" stroke-dasharray="3 3"/>
<rect x="-0.332232" y="0.120922" width="0.5" height="1099.5" transform="matrix(-0.906308 -0.422618 -0.422618 0.906308 797.633 -85.9982)" stroke="#171717" stroke-width="0.5" stroke-dasharray="3 3"/>
<rect x="-0.332232" y="0.120922" width="0.5" height="1099.5" transform="matrix(-0.906308 -0.422618 -0.422618 0.906308 774.976 -96.5646)" stroke="#171717" stroke-width="0.5" stroke-dasharray="3 3"/>
<rect x="-0.332232" y="0.120922" width="0.5" height="1099.5" transform="matrix(-0.906308 -0.422618 -0.422618 0.906308 752.316 -107.129)" stroke="#171717" stroke-width="0.5" stroke-dasharray="3 3"/>
<rect x="-0.332232" y="0.120922" width="0.5" height="1099.5" transform="matrix(-0.906308 -0.422618 -0.422618 0.906308 729.66 -117.695)" stroke="#171717" stroke-width="0.5" stroke-dasharray="3 3"/>
<rect x="-0.332232" y="0.120922" width="0.5" height="1099.5" transform="matrix(-0.906308 -0.422618 -0.422618 0.906308 707.004 -128.26)" stroke="#171717" stroke-width="0.5" stroke-dasharray="3 3"/>
<rect x="-0.332232" y="0.120922" width="0.5" height="1099.5" transform="matrix(-0.906308 -0.422618 -0.422618 0.906308 684.344 -138.826)" stroke="#171717" stroke-width="0.5" stroke-dasharray="3 3"/>
<rect x="-0.332232" y="0.120922" width="0.5" height="1099.5" transform="matrix(-0.906308 -0.422618 -0.422618 0.906308 661.687 -149.391)" stroke="#171717" stroke-width="0.5" stroke-dasharray="3 3"/>
<rect x="-0.332232" y="0.120922" width="0.5" height="1099.5" transform="matrix(-0.906308 -0.422618 -0.422618 0.906308 639.027 -159.957)" stroke="#171717" stroke-width="0.5" stroke-dasharray="3 3"/>
<rect x="-0.332232" y="0.120922" width="0.5" height="1099.5" transform="matrix(-0.906308 -0.422618 -0.422618 0.906308 616.371 -170.522)" stroke="#171717" stroke-width="0.5" stroke-dasharray="3 3"/>
<rect x="-0.332232" y="0.120922" width="0.5" height="1099.5" transform="matrix(-0.906308 -0.422618 -0.422618 0.906308 593.715 -181.088)" stroke="#171717" stroke-width="0.5" stroke-dasharray="3 3"/>
<rect x="-0.332232" y="0.120922" width="0.5" height="1099.5" transform="matrix(-0.906308 -0.422618 -0.422618 0.906308 571.054 -191.653)" stroke="#171717" stroke-width="0.5" stroke-dasharray="3 3"/>
<rect x="-0.332232" y="0.120922" width="0.5" height="1099.5" transform="matrix(-0.906308 -0.422618 -0.422618 0.906308 548.398 -202.219)" stroke="#171717" stroke-width="0.5" stroke-dasharray="3 3"/>
<rect x="-0.332232" y="0.120922" width="0.5" height="1099.5" transform="matrix(-0.906308 -0.422618 -0.422618 0.906308 525.742 -212.783)" stroke="#171717" stroke-width="0.5" stroke-dasharray="3 3"/>
<rect x="-0.332232" y="0.120922" width="0.5" height="1099.5" transform="matrix(-0.906308 -0.422618 -0.422618 0.906308 503.082 -223.35)" stroke="#171717" stroke-width="0.5" stroke-dasharray="3 3"/>
<rect x="-0.332232" y="0.120922" width="0.5" height="1099.5" transform="matrix(-0.906308 -0.422618 -0.422618 0.906308 480.426 -233.914)" stroke="#171717" stroke-width="0.5" stroke-dasharray="3 3"/>
<rect x="-0.332232" y="0.120922" width="0.5" height="1099.5" transform="matrix(-0.906308 -0.422618 -0.422618 0.906308 457.769 -244.481)" stroke="#171717" stroke-width="0.5" stroke-dasharray="3 3"/>
<rect x="-0.332232" y="0.120922" width="0.5" height="1099.5" transform="matrix(-0.906308 -0.422618 -0.422618 0.906308 435.109 -255.045)" stroke="#171717" stroke-width="0.5" stroke-dasharray="3 3"/>
<rect x="-0.332232" y="0.120922" width="0.5" height="1099.5" transform="matrix(-0.906308 -0.422618 -0.422618 0.906308 412.453 -265.611)" stroke="#171717" stroke-width="0.5" stroke-dasharray="3 3"/>
<rect x="-0.332232" y="0.120922" width="0.5" height="1099.5" transform="matrix(-0.906308 -0.422618 -0.422618 0.906308 389.793 -276.176)" stroke="#171717" stroke-width="0.5" stroke-dasharray="3 3"/>
<rect x="-0.332232" y="0.120922" width="0.5" height="1099.5" transform="matrix(-0.906308 -0.422618 -0.422618 0.906308 367.137 -286.742)" stroke="#171717" stroke-width="0.5" stroke-dasharray="3 3"/>
<rect x="-0.332232" y="0.120922" width="0.5" height="1099.5" transform="matrix(-0.906308 -0.422618 -0.422618 0.906308 344.48 -297.307)" stroke="#171717" stroke-width="0.5" stroke-dasharray="3 3"/>
<rect x="-0.332232" y="0.120922" width="0.5" height="1099.5" transform="matrix(-0.906308 -0.422618 -0.422618 0.906308 321.82 -307.873)" stroke="#171717" stroke-width="0.5" stroke-dasharray="3 3"/>
<rect x="-0.332232" y="0.120922" width="0.5" height="1099.5" transform="matrix(-0.906308 -0.422618 -0.422618 0.906308 299.164 -318.44)" stroke="#171717" stroke-width="0.5" stroke-dasharray="3 3"/>
<rect x="-0.332232" y="0.120922" width="0.5" height="1099.5" transform="matrix(-0.906308 -0.422618 -0.422618 0.906308 276.508 -329.004)" stroke="#171717" stroke-width="0.5" stroke-dasharray="3 3"/>
</g>
<defs>
<clipPath id="clip0_2448_1055">
<path d="M960.395 101.477L380.358 -168.999L10.1439 624.927C4.54218 636.939 9.73951 651.219 21.7525 656.821L558.287 907.011C570.3 912.612 584.579 907.415 590.181 895.402L960.395 101.477Z" fill="white"/>
</clipPath>
</defs>
</svg>
