<svg xmlns="http://www.w3.org/2000/svg" width="512" height="512" viewBox="0 0 2724.000000 2724.000000" fill="currentColor">
<g transform="translate(0.000000,2724.000000) scale(0.100000,-0.100000)"
fill="currentColor" stroke="none">
<path d="M14145 24959 c-99 -4 -218 -13 -265 -19 -47 -6 -121 -15 -165 -21
-71 -9 -134 -19 -310 -49 -27 -5 -72 -14 -100 -20 -27 -6 -72 -15 -100 -20
-63 -11 -136 -28 -199 -46 -26 -8 -55 -14 -63 -14 -9 0 -36 -6 -62 -14 -25 -8
-71 -21 -101 -30 -50 -14 -145 -44 -240 -77 -19 -6 -48 -17 -65 -24 -16 -7
-59 -25 -95 -39 -36 -15 -78 -33 -93 -41 -16 -8 -34 -15 -40 -15 -6 0 -29 -8
-51 -19 -23 -10 -50 -21 -61 -24 -11 -3 -60 -20 -110 -38 -84 -30 -100 -32
-245 -35 -400 -8 -596 -15 -725 -24 -77 -6 -162 -12 -190 -14 -61 -4 -240 -24
-275 -30 -14 -3 -79 -12 -145 -21 -66 -9 -134 -21 -151 -26 -17 -5 -47 -9 -67
-9 -19 0 -48 -5 -63 -11 -16 -5 -58 -14 -94 -19 -36 -5 -96 -17 -135 -25 -38
-9 -93 -20 -121 -24 -28 -5 -61 -14 -72 -20 -11 -6 -36 -11 -54 -11 -18 -1
-44 -7 -58 -15 -14 -8 -36 -14 -50 -15 -14 0 -45 -6 -70 -14 -124 -38 -148
-45 -183 -51 -20 -4 -40 -11 -43 -16 -3 -5 -15 -9 -27 -9 -12 -1 -40 -8 -62
-16 -22 -9 -56 -20 -75 -24 -54 -14 -258 -85 -266 -93 -4 -4 -14 -7 -23 -7
-14 0 -82 -24 -156 -55 -16 -7 -57 -22 -90 -35 -33 -12 -73 -28 -90 -35 -16
-8 -59 -25 -95 -40 -36 -15 -87 -37 -115 -50 -27 -12 -88 -40 -135 -61 -47
-21 -92 -44 -101 -51 -8 -7 -21 -13 -27 -13 -10 0 -96 -45 -237 -122 -27 -15
-63 -34 -80 -42 -161 -81 -490 -286 -845 -527 -36 -25 -106 -76 -127 -94 -6
-5 -27 -20 -45 -33 -85 -59 -272 -203 -359 -276 -53 -45 -114 -94 -135 -111
-21 -16 -47 -39 -58 -51 -12 -11 -59 -54 -106 -95 -175 -152 -463 -436 -615
-603 -44 -49 -89 -98 -101 -110 -50 -51 -179 -203 -309 -366 -22 -27 -57 -69
-77 -92 -21 -23 -38 -48 -38 -54 0 -7 -8 -19 -19 -26 -10 -7 -32 -34 -49 -59
-17 -25 -39 -52 -47 -59 -9 -8 -25 -30 -35 -49 -10 -20 -28 -45 -40 -56 -12
-11 -33 -41 -46 -66 -13 -26 -29 -49 -36 -52 -8 -2 -22 -22 -33 -43 -11 -22
-34 -57 -51 -79 -18 -22 -41 -59 -53 -82 -12 -24 -26 -43 -32 -43 -5 0 -20
-22 -32 -49 -13 -27 -36 -64 -52 -82 -15 -19 -34 -49 -42 -68 -8 -19 -28 -50
-43 -70 -16 -20 -37 -54 -46 -76 -9 -22 -27 -52 -40 -68 -13 -15 -32 -48 -43
-72 -11 -24 -33 -64 -49 -87 -16 -24 -43 -72 -61 -108 -17 -36 -40 -81 -51
-100 -11 -19 -30 -57 -43 -85 -13 -27 -36 -72 -50 -100 -14 -27 -48 -97 -76
-155 -27 -58 -74 -157 -104 -220 -30 -63 -60 -133 -67 -155 -7 -22 -26 -67
-43 -100 -17 -33 -52 -118 -78 -190 -26 -71 -59 -159 -74 -194 -15 -35 -40
-109 -57 -165 -17 -55 -47 -144 -68 -196 -21 -52 -59 -174 -85 -270 -25 -96
-73 -272 -105 -390 -32 -118 -69 -262 -82 -319 -16 -74 -24 -97 -29 -80 -5 20
-8 15 -17 -26 -6 -27 -13 -68 -16 -90 l-6 -40 14 40 c22 64 18 36 -23 -168
-72 -348 -181 -1036 -181 -1136 0 -31 -7 -107 -15 -167 -16 -108 -26 -260 -45
-632 -5 -106 -11 -196 -14 -201 -9 -14 -6 -392 4 -486 11 -105 27 -166 58
-215 12 -19 22 -38 22 -41 0 -3 26 -19 58 -35 49 -25 71 -29 154 -32 81 -3
107 0 155 18 68 25 84 38 129 106 42 63 54 93 94 229 52 175 128 363 151 370
57 18 69 -55 59 -365 -10 -340 -4 -947 14 -1240 9 -135 17 -279 20 -320 2 -41
9 -124 15 -185 6 -60 14 -135 16 -165 2 -30 10 -83 16 -117 6 -34 9 -65 6 -70
-3 -5 1 -42 9 -82 7 -41 12 -77 10 -80 -2 -3 0 -26 5 -51 5 -25 14 -81 19
-125 27 -212 49 -352 61 -382 5 -13 9 -39 9 -58 0 -19 5 -46 11 -62 6 -15 15
-53 19 -83 5 -30 16 -86 25 -125 8 -38 20 -92 26 -120 5 -27 13 -57 16 -65 4
-8 12 -37 19 -65 33 -134 43 -168 53 -178 6 -6 11 -20 11 -32 0 -31 61 -207
94 -270 9 -17 16 -34 16 -40 0 -24 86 -185 145 -274 141 -213 252 -285 437
-286 57 0 91 4 99 13 7 6 21 12 31 12 56 0 215 127 244 196 34 80 45 196 42
460 -2 280 6 354 56 502 75 220 317 326 541 236 105 -42 217 -167 307 -344 21
-41 38 -78 38 -82 0 -4 18 -45 40 -92 22 -47 40 -91 40 -98 0 -7 7 -22 15 -32
8 -11 15 -27 15 -35 1 -9 9 -34 20 -56 11 -22 19 -49 20 -60 0 -12 4 -25 9
-30 9 -10 43 -100 61 -160 4 -16 13 -43 19 -60 6 -16 22 -64 35 -105 37 -112
77 -226 108 -302 69 -174 262 -332 456 -373 136 -28 257 -12 368 50 70 39 176
139 359 339 44 48 94 102 110 120 17 17 77 83 135 146 58 63 123 132 145 155
63 66 248 266 286 309 73 84 178 146 279 166 92 18 142 8 238 -49 99 -58 171
-124 266 -242 76 -94 243 -370 313 -519 22 -47 59 -124 82 -173 22 -48 41 -93
41 -100 0 -7 4 -17 9 -22 9 -9 19 -34 56 -137 9 -24 19 -52 24 -63 16 -38 49
-130 56 -155 4 -14 11 -29 15 -35 4 -5 11 -26 15 -45 4 -19 11 -39 15 -45 4
-5 11 -21 15 -35 21 -77 113 -306 170 -425 122 -253 209 -344 370 -385 103
-26 264 -4 340 47 11 7 25 13 31 13 14 0 142 72 199 112 22 16 56 39 75 52 76
51 333 281 476 427 206 209 266 266 430 405 223 188 362 284 559 385 130 66
176 82 305 105 137 25 220 -3 320 -106 61 -63 125 -197 170 -355 7 -26 51
-155 81 -240 6 -16 15 -43 19 -60 5 -16 20 -61 35 -100 14 -38 30 -86 35 -105
6 -19 28 -87 51 -150 22 -63 44 -128 49 -145 9 -31 33 -103 56 -165 7 -19 25
-70 40 -114 57 -163 136 -259 277 -336 48 -26 181 -53 222 -44 52 11 132 56
321 182 35 23 67 42 70 42 3 0 29 16 59 35 30 19 76 46 102 60 100 52 179 119
385 325 370 369 518 482 700 535 99 28 221 3 331 -67 56 -36 81 -34 152 11 27
17 71 38 99 47 28 9 80 32 116 50 36 18 88 38 115 45 28 7 80 27 116 45 37 18
89 38 115 45 27 6 76 25 109 41 60 31 190 79 385 145 58 19 155 53 215 74 61
21 134 43 163 49 29 5 84 23 122 39 38 17 111 37 162 47 51 9 119 27 151 41
32 13 113 36 180 51 l120 27 44 60 c24 33 55 85 68 115 14 30 36 75 51 100 14
25 33 63 42 85 9 22 37 78 60 125 24 47 53 110 65 140 11 30 31 73 45 95 14
21 38 74 53 117 16 43 43 106 60 140 17 34 44 104 60 157 17 53 46 134 66 181
19 47 45 111 57 143 12 32 30 67 39 77 20 24 60 26 81 4 20 -19 20 -48 2 -144
-37 -193 -39 -394 -7 -517 39 -151 200 -263 331 -230 88 22 221 128 271 217 8
14 26 41 40 60 31 42 141 267 162 330 8 25 35 95 59 155 25 61 57 154 73 209
15 54 54 175 87 269 32 94 73 221 89 281 17 60 53 166 80 237 38 101 148 482
231 807 7 30 14 39 19 30 9 -13 14 20 11 70 0 12 4 22 10 22 6 0 8 12 4 30 -3
19 -1 30 5 30 7 0 9 10 5 24 -3 14 -1 26 5 28 14 5 29 78 22 107 -4 15 -2 22
4 18 6 -4 10 12 9 41 -1 26 16 142 36 257 73 417 108 653 118 795 5 80 14 173
20 207 30 181 49 1097 29 1413 -5 91 -12 194 -14 230 -4 65 -18 224 -35 375
-8 74 -19 164 -39 325 -13 99 -31 203 -37 220 -3 8 -10 44 -15 80 -4 36 -15
99 -24 140 -8 41 -20 98 -25 127 -6 29 -15 64 -20 78 -6 15 -10 38 -10 52 0
14 -6 46 -14 72 -18 58 -35 124 -45 176 -4 22 -12 56 -18 75 -6 19 -21 69 -33
110 -11 41 -27 95 -34 120 -8 25 -21 72 -31 105 -10 33 -23 76 -30 95 -7 19
-22 67 -34 105 -41 132 -63 200 -69 210 -4 5 -12 28 -18 50 -7 22 -17 56 -25
75 -47 129 -62 166 -70 175 -5 5 -9 18 -9 30 0 12 -7 30 -15 41 -8 10 -15 24
-15 31 0 7 -11 37 -25 67 -14 30 -25 58 -25 62 0 7 -15 39 -81 180 -16 34 -29
65 -29 69 0 20 -252 507 -357 691 -109 189 -346 558 -454 704 -22 30 -48 66
-57 80 -51 76 -183 248 -299 388 -103 126 -157 189 -172 202 -10 8 -22 23 -27
31 -11 19 -231 253 -355 378 -169 169 -332 319 -499 460 -52 44 -107 91 -121
105 -14 13 -42 34 -62 46 -20 12 -37 26 -37 31 0 6 -22 24 -50 41 -27 17 -50
34 -50 39 0 4 -17 18 -37 30 -21 12 -54 36 -75 53 -41 35 -106 82 -152 110
-17 11 -54 37 -82 58 -28 21 -55 38 -61 38 -5 0 -27 15 -49 34 -21 18 -55 41
-74 51 -19 10 -48 29 -64 42 -15 13 -45 31 -65 39 -19 8 -45 23 -56 34 -11 10
-45 31 -75 46 -30 14 -69 37 -86 50 -17 12 -58 36 -92 52 -33 16 -73 38 -89
49 -15 11 -44 26 -63 33 -19 7 -64 30 -100 51 -36 21 -85 46 -110 55 -25 10
-62 28 -82 41 -21 13 -71 36 -112 53 -41 16 -105 44 -143 63 -37 19 -99 45
-138 57 -38 13 -95 35 -125 50 -30 15 -98 41 -150 58 -145 47 -237 78 -333
112 -48 17 -156 48 -240 70 -175 44 -184 47 -190 65 -7 17 38 82 63 90 50 16
440 314 440 336 0 4 12 21 26 36 56 61 65 117 37 239 -41 176 -289 293 -678
319 -49 3 -103 7 -120 9 -16 2 -111 -1 -210 -5z m-3011 -4131 c24 -34 20 -69
-34 -263 -51 -184 -97 -374 -146 -615 -37 -181 -38 -363 -2 -455 30 -79 60
-121 118 -170 57 -46 98 -63 160 -64 56 -1 163 29 240 67 85 43 272 170 370
253 261 220 425 341 495 366 39 13 41 13 62 -11 34 -40 37 -99 15 -273 -29
-222 -23 -467 17 -743 21 -137 31 -192 41 -210 5 -10 10 -29 10 -41 0 -24 33
-133 56 -186 8 -17 14 -35 14 -41 0 -13 34 -93 76 -178 58 -118 174 -220 276
-243 61 -14 170 1 228 31 68 36 120 69 120 78 0 4 13 24 29 44 29 36 38 58
120 281 39 104 88 266 126 415 9 36 41 134 71 219 30 84 69 201 86 260 16 58
41 126 53 152 13 25 40 92 60 150 20 57 49 128 66 157 16 29 39 76 50 105 11
29 31 66 43 82 13 17 33 50 46 75 38 75 130 181 231 266 81 68 103 75 147 47
33 -22 147 -128 221 -207 69 -73 275 -280 322 -322 19 -17 61 -54 94 -83 33
-28 76 -65 95 -82 40 -34 119 -98 182 -147 24 -18 69 -53 100 -77 31 -25 60
-45 65 -45 4 0 22 -13 38 -29 17 -15 51 -41 75 -56 25 -16 51 -34 58 -42 8 -7
28 -21 45 -29 17 -9 53 -34 80 -55 27 -22 53 -39 57 -39 5 0 21 -11 37 -24 15
-13 44 -32 64 -43 20 -10 53 -33 75 -49 21 -17 55 -39 74 -49 19 -10 49 -29
65 -42 28 -23 66 -49 175 -118 26 -16 67 -43 91 -59 24 -16 61 -41 83 -55 21
-14 60 -39 86 -56 86 -55 145 -94 185 -123 22 -16 51 -35 65 -42 14 -7 43 -28
64 -47 22 -18 44 -33 50 -33 6 0 36 -20 66 -45 30 -25 58 -45 62 -45 5 0 17
-9 29 -21 11 -11 37 -32 57 -45 95 -64 311 -286 413 -424 38 -51 199 -290 199
-295 0 -3 17 -31 37 -62 60 -92 69 -109 157 -288 83 -169 100 -207 151 -339
15 -38 30 -77 35 -85 11 -25 41 -112 50 -151 23 -91 33 -128 46 -158 8 -18 14
-46 14 -63 0 -17 5 -39 10 -49 11 -21 27 -117 40 -240 4 -41 11 -83 14 -92 5
-11 0 -24 -13 -37 -20 -20 -22 -20 -63 -4 -24 9 -58 28 -77 42 -18 14 -57 40
-87 56 -29 17 -74 44 -99 60 -25 17 -70 45 -98 64 -29 18 -71 42 -93 52 -23
10 -47 26 -55 35 -7 9 -42 31 -78 50 -36 19 -79 44 -96 55 -55 37 -139 88
-196 117 -31 16 -72 41 -90 55 -19 14 -54 33 -79 43 -25 10 -62 30 -82 45 -21
14 -64 37 -95 50 -32 12 -74 33 -93 46 -20 12 -72 36 -115 52 -44 16 -107 43
-140 60 -66 33 -322 109 -478 141 -197 41 -306 51 -450 39 -225 -17 -280 -25
-422 -64 -27 -8 -59 -16 -70 -19 -136 -34 -338 -138 -492 -253 -77 -57 -236
-213 -291 -285 -69 -90 -102 -138 -121 -175 -10 -21 -35 -64 -55 -97 -19 -32
-41 -75 -47 -95 -6 -20 -31 -85 -55 -146 -52 -134 -80 -281 -90 -470 -4 -77
-7 -146 -5 -153 1 -7 6 -59 11 -115 13 -153 24 -205 76 -362 21 -65 81 -200
104 -235 6 -8 14 -25 20 -38 5 -12 18 -35 28 -50 10 -15 32 -47 48 -72 31 -49
35 -54 91 -119 52 -60 215 -221 224 -221 4 0 28 -17 52 -37 24 -21 66 -51 92
-68 165 -103 236 -142 305 -169 36 -13 83 -33 105 -44 54 -27 174 -63 395
-117 102 -25 259 -71 350 -101 91 -31 217 -70 280 -89 63 -18 160 -51 215 -73
55 -22 143 -53 195 -70 52 -17 129 -46 170 -65 41 -19 104 -45 140 -58 36 -12
81 -33 101 -45 19 -12 67 -35 105 -52 38 -16 98 -49 134 -74 57 -39 65 -49 63
-74 -2 -17 -16 -42 -37 -64 -20 -19 -55 -57 -78 -84 -91 -104 -428 -436 -523
-517 -216 -183 -410 -322 -715 -514 -68 -42 -86 -53 -200 -112 -211 -111 -387
-196 -451 -218 -20 -7 -45 -18 -55 -23 -37 -19 -209 -85 -374 -145 -30 -10
-70 -26 -88 -33 -18 -8 -42 -14 -53 -14 -11 0 -30 -5 -42 -11 -40 -22 -288
-89 -425 -115 -40 -7 -78 -16 -83 -20 -5 -3 -24 -7 -42 -8 -31 -3 -93 -15
-187 -38 -25 -6 -73 -15 -107 -19 -35 -5 -93 -14 -130 -19 -236 -35 -549 -65
-798 -76 -171 -7 -656 -7 -687 1 -13 3 -102 10 -198 15 -96 5 -222 16 -280 24
-58 8 -157 20 -220 26 -181 17 -330 44 -755 136 -244 54 -343 80 -555 149
-412 133 -574 191 -725 257 -38 17 -113 47 -165 68 -52 20 -120 50 -150 67
-30 17 -77 39 -105 49 -27 10 -69 30 -93 45 -23 15 -68 37 -100 50 -31 12 -70
33 -87 45 -16 12 -56 34 -89 48 -32 15 -73 37 -90 50 -17 12 -57 35 -88 50
-32 15 -58 31 -58 35 0 4 -26 20 -57 36 -32 15 -67 35 -78 45 -11 10 -41 29
-67 43 -26 14 -64 39 -85 56 -21 17 -42 31 -48 31 -6 0 -32 18 -59 40 -26 22
-52 40 -56 40 -5 0 -30 18 -55 40 -25 22 -50 40 -55 40 -5 0 -32 19 -59 43
-28 23 -71 58 -96 77 -197 152 -402 335 -609 544 -376 379 -651 738 -892 1163
-22 39 -184 364 -209 418 -7 17 -25 56 -39 87 -14 31 -26 64 -26 72 0 8 -4 17
-9 20 -5 3 -12 18 -16 33 -3 16 -14 46 -24 68 -20 44 -32 77 -62 175 -11 36
-29 88 -40 115 -10 28 -19 57 -19 64 0 8 -10 40 -21 72 -45 122 -16 138 237
134 262 -5 467 -14 564 -25 47 -5 135 -12 195 -16 61 -3 187 -16 280 -29 94
-13 224 -29 290 -35 66 -7 224 -29 350 -50 340 -56 628 -62 850 -16 39 7 86
17 105 21 86 17 256 78 352 125 142 70 231 131 384 262 68 58 224 231 224 248
0 4 16 27 35 51 19 24 35 49 35 55 0 5 17 37 38 70 62 95 152 342 187 511 25
119 26 482 1 583 -49 205 -54 219 -109 344 -54 123 -105 216 -177 321 -8 12
-24 35 -34 51 -27 40 -132 160 -187 214 -43 41 -74 67 -194 160 -94 74 -350
206 -470 243 -122 38 -332 87 -475 111 -132 22 -185 26 -360 26 -239 -1 -334
-4 -485 -18 -60 -6 -164 -16 -230 -22 -66 -5 -147 -15 -180 -21 -33 -6 -85
-12 -115 -15 -30 -3 -62 -7 -70 -10 -8 -3 -53 -10 -100 -16 -47 -5 -112 -14
-145 -18 -33 -5 -94 -13 -135 -18 -41 -6 -88 -15 -103 -21 -38 -15 -130 -14
-145 1 -20 20 -14 53 18 93 17 21 39 57 49 79 10 23 31 57 47 78 16 20 37 49
46 65 10 15 38 53 63 83 25 30 63 78 84 105 48 63 281 300 381 387 172 150
438 340 630 450 156 89 414 218 437 218 4 0 25 8 47 18 23 10 75 29 116 42 41
13 79 28 84 32 6 4 19 8 30 8 12 1 39 8 61 16 22 8 60 19 85 24 25 5 81 16
125 25 113 23 275 42 525 59 30 2 91 9 135 15 44 5 115 15 157 20 43 6 95 15
115 20 21 6 53 11 70 11 18 0 52 4 75 10 91 20 155 33 198 40 25 4 68 13 95
20 28 6 77 19 110 27 77 18 158 41 215 59 25 8 51 14 58 14 8 0 28 6 45 14 18
8 48 19 67 25 19 5 51 15 70 22 19 7 60 21 90 32 30 11 67 26 82 33 14 8 32
14 38 14 7 0 31 9 54 19 47 22 227 95 271 109 47 16 63 14 79 -10z m-2512
-3112 c50 -14 195 -74 224 -94 146 -97 265 -241 315 -382 50 -142 47 -326 -5
-379 -24 -23 -36 -27 -118 -31 -51 -3 -141 -1 -201 4 -195 16 -332 -21 -445
-120 -29 -25 -52 -50 -52 -56 0 -5 -13 -27 -29 -47 -15 -20 -38 -55 -49 -77
-24 -48 -139 -157 -195 -185 -56 -29 -160 -29 -214 -1 -127 66 -210 200 -257
417 -29 130 4 339 78 495 52 111 192 261 321 344 76 49 202 105 239 107 11 0
37 7 56 15 45 18 252 12 332 -10z m-5595 -788 c-3 -7 -5 -2 -5 12 0 14 2 19 5
13 2 -7 2 -19 0 -25z m12748 -759 c116 -27 235 -75 276 -110 19 -16 37 -29 41
-29 16 0 91 -76 123 -124 50 -76 106 -191 124 -255 20 -72 19 -214 -1 -261 -8
-20 -34 -48 -58 -65 l-44 -30 -170 -1 c-185 -1 -250 -10 -333 -50 -54 -25
-161 -124 -210 -194 -99 -142 -128 -174 -213 -229 -46 -29 -66 -36 -121 -39
-57 -4 -73 0 -122 24 -127 65 -235 249 -266 454 -21 144 38 419 111 511 15 20
28 42 28 47 0 29 167 190 255 247 179 115 383 151 580 104z"/>
<path d="M11695 16178 c-189 -45 -280 -85 -396 -173 -63 -47 -159 -149 -159
-168 0 -4 -13 -27 -29 -50 -38 -56 -56 -100 -76 -191 -34 -153 -17 -365 39
-491 31 -69 70 -142 90 -168 45 -59 188 -195 219 -208 18 -7 46 -23 63 -36 46
-35 89 -49 224 -77 115 -24 134 -25 240 -17 104 8 190 26 245 49 210 90 368
223 425 358 12 27 28 63 36 80 29 61 44 140 50 259 5 96 3 129 -10 164 -9 24
-16 54 -16 67 0 37 -70 187 -122 262 -46 66 -156 169 -233 218 -151 96 -444
157 -590 122z"/>
<path d="M9761 14730 c-47 -10 -101 -43 -144 -88 -31 -32 -57 -124 -57 -201 0
-278 239 -747 493 -967 92 -79 119 -100 172 -128 28 -15 65 -38 83 -51 102
-73 510 -159 668 -139 38 4 76 7 84 6 8 -1 40 4 70 10 80 15 159 28 211 34 42
5 50 3 95 -35 27 -22 64 -53 83 -68 19 -15 62 -43 95 -62 189 -106 355 -157
583 -181 193 -21 383 8 620 94 139 51 343 191 488 335 147 146 168 173 210
272 32 73 37 94 36 160 -1 95 -32 161 -103 223 -82 70 -135 80 -219 41 -76
-36 -98 -54 -246 -203 -163 -163 -229 -222 -313 -277 -189 -124 -407 -146
-626 -64 -62 23 -163 103 -194 154 -24 39 -29 127 -16 280 7 89 7 91 -21 132
-60 88 -153 143 -272 162 -63 10 -59 10 -127 -9 -78 -23 -116 -43 -154 -82
-39 -41 -53 -71 -80 -178 -29 -118 -38 -137 -74 -159 -52 -32 -178 -54 -268
-46 -98 9 -247 59 -312 105 -165 118 -297 314 -365 540 -13 41 -32 104 -43
140 -34 116 -62 163 -123 210 -51 39 -61 43 -123 46 -37 2 -87 -1 -111 -6z"/>
<path d="M3051 17134 c0 -11 3 -14 6 -6 3 7 2 16 -1 19 -3 4 -6 -2 -5 -13z"/>
<path d="M3041 17084 c0 -11 3 -14 6 -6 3 7 2 16 -1 19 -3 4 -6 -2 -5 -13z"/>
<path d="M2981 16804 c0 -11 3 -14 6 -6 3 7 2 16 -1 19 -3 4 -6 -2 -5 -13z"/>
<path d="M2966 16745 c-3 -9 -6 -22 -5 -28 0 -7 5 -1 10 12 5 13 8 26 5 28 -2
2 -6 -3 -10 -12z"/>
<path d="M2952 16680 c0 -14 2 -19 5 -12 2 6 2 18 0 25 -3 6 -5 1 -5 -13z"/>
<path d="M2941 16624 c0 -11 3 -14 6 -6 3 7 2 16 -1 19 -3 4 -6 -2 -5 -13z"/>
<path d="M24250 9060 c-9 -6 -10 -10 -3 -10 6 0 15 5 18 10 8 12 4 12 -15 0z"/>
<path d="M24125 9004 c-21 -14 -59 -34 -84 -44 -25 -11 -40 -19 -33 -19 7 -1
27 5 45 13 41 17 134 76 120 76 -5 0 -27 -12 -48 -26z"/>
<path d="M23931 8911 c-24 -16 -65 -37 -90 -47 -25 -9 -65 -30 -87 -45 -23
-15 -61 -36 -85 -45 -24 -9 -49 -21 -55 -26 -6 -4 -157 -81 -335 -171 -178
-90 -333 -168 -344 -175 -11 -6 -47 -24 -80 -40 -33 -16 -69 -34 -80 -40 -11
-6 -83 -41 -160 -77 -77 -37 -149 -72 -160 -78 -11 -7 -65 -35 -120 -63 -55
-28 -239 -122 -410 -209 -337 -171 -890 -450 -945 -476 -42 -20 -180 -91 -425
-218 -99 -51 -254 -132 -345 -178 -91 -47 -187 -98 -215 -113 -27 -16 -84 -46
-125 -67 -41 -22 -88 -47 -105 -56 -16 -9 -55 -28 -85 -42 -30 -14 -71 -34
-90 -45 -19 -11 -60 -31 -90 -45 -51 -24 -107 -54 -310 -162 -317 -171 -990
-513 -1007 -513 -4 0 -25 -11 -46 -26 -21 -14 -57 -32 -80 -40 -23 -8 -71 -32
-107 -53 -36 -22 -82 -44 -102 -51 -20 -6 -48 -20 -61 -31 -22 -16 -185 -104
-272 -146 -16 -8 -38 -18 -47 -23 -10 -6 -59 -30 -110 -55 -51 -25 -106 -53
-123 -62 -16 -9 -75 -40 -130 -68 -55 -28 -113 -59 -130 -68 -16 -9 -55 -27
-85 -41 -30 -14 -71 -34 -90 -45 -19 -11 -105 -54 -190 -95 -85 -42 -166 -83
-180 -91 -14 -8 -50 -26 -80 -40 -30 -14 -100 -50 -155 -80 -55 -29 -188 -97
-295 -151 -107 -53 -206 -105 -220 -114 -14 -10 -53 -29 -87 -43 -35 -14 -76
-35 -93 -47 -17 -12 -57 -32 -90 -45 -32 -13 -74 -34 -92 -48 -18 -13 -51 -30
-73 -37 -22 -7 -70 -30 -106 -51 -36 -21 -72 -39 -80 -39 -8 0 -34 -12 -59
-27 -25 -15 -88 -49 -140 -76 -52 -27 -135 -70 -185 -96 -75 -39 -572 -293
-737 -377 -27 -13 -52 -24 -56 -24 -5 0 -29 -13 -53 -30 -24 -16 -66 -37 -94
-46 -27 -9 -68 -29 -90 -44 -22 -15 -62 -35 -90 -45 -27 -11 -71 -33 -97 -51
-27 -18 -65 -38 -85 -44 -21 -7 -56 -24 -78 -38 -22 -15 -80 -47 -130 -73 -49
-25 -180 -92 -290 -148 -110 -57 -218 -111 -240 -122 -22 -11 -58 -29 -80 -41
-22 -12 -65 -34 -95 -50 -30 -16 -44 -26 -30 -23 14 4 51 22 82 41 31 19 75
41 98 49 23 8 67 30 98 49 31 20 77 42 101 51 24 8 50 20 57 26 13 10 175 95
328 171 44 22 93 50 110 62 17 13 54 31 81 41 28 10 65 29 83 42 18 13 64 37
103 53 38 16 82 38 96 50 14 11 50 27 80 36 29 8 66 26 81 38 15 12 54 33 87
46 33 13 72 32 87 42 14 10 64 36 110 57 45 22 99 49 118 59 19 11 109 57 200
103 285 143 344 173 377 197 17 12 51 29 75 37 24 9 66 31 94 50 27 19 71 41
98 49 26 8 61 25 79 39 18 13 57 32 87 42 30 10 70 29 88 42 18 14 60 35 92
48 33 13 73 33 90 45 17 12 58 33 93 47 34 14 73 33 87 42 21 15 159 85 478
244 31 16 86 46 122 67 36 22 81 45 100 51 19 7 54 25 77 41 24 16 75 42 114
58 39 16 79 36 88 44 10 9 44 25 77 36 32 11 77 33 99 49 22 15 62 35 89 44
27 9 63 28 81 41 18 14 56 34 85 45 29 11 70 31 90 45 21 14 64 36 96 50 33
13 86 39 119 58 33 19 76 40 95 48 19 7 53 25 75 39 22 13 69 38 105 54 36 16
80 40 98 54 18 14 61 36 94 50 34 13 75 35 92 48 17 13 58 33 91 46 33 12 72
30 87 41 15 10 59 32 98 48 39 16 82 38 96 49 14 11 51 30 82 41 31 12 77 34
102 50 25 16 65 36 90 46 25 10 61 27 80 39 19 12 73 40 120 63 47 22 96 48
110 56 14 8 57 31 95 50 142 69 241 122 280 148 22 15 65 36 96 48 31 11 64
29 74 40 10 11 47 29 82 40 35 11 79 31 97 45 18 14 59 34 91 45 32 11 72 30
89 43 17 12 58 33 91 46 33 13 67 30 75 36 14 12 186 100 285 146 22 11 58 29
80 40 22 12 81 42 130 67 50 24 101 52 115 62 14 10 50 28 80 41 30 12 73 35
96 50 23 16 68 40 100 54 32 14 79 39 104 55 25 15 63 33 85 39 22 6 60 24 85
41 25 17 62 35 83 41 21 5 65 28 99 50 34 21 69 39 78 39 9 0 46 18 82 40 37
22 90 49 119 60 29 12 65 30 80 41 15 10 66 37 114 59 48 22 99 48 113 58 15
11 49 27 76 38 28 10 70 32 95 49 25 18 68 40 94 50 27 10 66 31 88 47 22 16
63 38 91 49 29 11 77 35 108 54 30 18 73 39 95 45 22 7 51 20 65 30 30 21 312
160 323 160 5 0 28 13 51 30 24 16 63 37 87 46 24 10 60 28 80 40 20 12 119
64 219 116 273 139 351 180 395 209 22 15 56 32 76 38 36 12 143 81 124 81 -6
0 -30 -13 -54 -29z"/>
<path d="M12347 3004 c-21 -14 -68 -37 -105 -52 -65 -27 -157 -82 -137 -82 6
0 28 12 49 26 21 15 64 37 95 49 56 22 164 85 145 85 -5 0 -26 -11 -47 -26z"/>
<path d="M12030 2850 c-8 -5 -10 -10 -5 -10 6 0 17 5 25 10 8 5 11 10 5 10 -5
0 -17 -5 -25 -10z"/>
<path d="M11979 2819 l-24 -20 28 17 c15 9 27 18 27 20 0 8 -8 4 -31 -17z"/>
<path d="M11920 2785 c-14 -8 -20 -14 -14 -15 5 0 19 7 30 15 24 18 16 19 -16
0z"/>
<path d="M11840 2750 c-8 -5 -10 -10 -5 -10 6 0 17 5 25 10 8 5 11 10 5 10 -5
0 -17 -5 -25 -10z"/>
<path d="M11725 2684 c-33 -18 -56 -34 -52 -34 13 0 105 49 112 60 8 12 11 14
-60 -26z"/>
<path d="M11635 2640 c-3 -6 1 -7 9 -4 18 7 21 14 7 14 -6 0 -13 -4 -16 -10z"/>
<path d="M11530 2580 c-19 -11 -31 -19 -27 -20 11 0 67 29 67 35 0 7 -1 7 -40
-15z"/>
<path d="M11454 2544 c-18 -14 -18 -14 6 -3 31 14 36 19 24 19 -6 0 -19 -7
-30 -16z"/>
</g>
</svg>